<svg version="1.0" xmlns="http://www.w3.org/2000/svg" width="700pt" height="700pt" viewBox="0 0 700 700"><g transform="translate(0.000000,700.000000) scale(0.100000,-0.100000)" fill="#000" stroke="none"><path d="M1245 6986c-331-55-587-186-820-420-208-209-333-441-396-736-32-149-33-429-1-573 1e2-457 386-826 793-1024 332-162 737-191 1088-76 88 28 244 1e2 316 145 182 115 357 290 472 473 114 180 213 482 213 649 0 22 3 51 6 64l6 22h578 578l6-31c3-17 6-46 6-64 0-50 27-191 55-290 36-128 150-351 234-460l70-90-97-96c-113-112-1761-1728-1872-1835l-75-73-65 50c-442 337-1047 390-1543 137-397-203-673-566-769-1011-31-147-31-427 0-574C170 514 705 50 1376 4c196-13 457 31 644 110 390 165 694 496 824 896 35 109 66 264 66 334 0 23 3 51 6 64l6 22h578 578l6-31c3-17 6-46 6-63 0-59 32-220 62-316 135-422 461-768 873-923 181-69 418-105 599-93 671 46 1207 511 1348 1169 31 148 31 428 0 574-127 589-561 1020-1152 1144-137 29-388 32-527 6-4e2-73-744-3e2-968-637-106-159-190-368-217-537l-12-83h-597-596l-6 53c-24 203-137 464-287 659l-58 76 1019 1001c560 551 1021 1001 1024 1001s33-22 68-48c219-170 496-273 775-291 598-37 1123 260 1402 792 107 203 155 413 155 667-1 186-16 280-71 451-70 219-183 399-358 575-209 209-458 341-753 401-131 27-433 24-563-5-388-85-710-304-926-628-99-148-179-344-210-513-9-47-18-92-20-98-3-10-131-13-597-13h-593l-12 80c-15 109-82 304-142 418-171 324-473 586-810 702-150 51-267 71-445 75-113 3-197 0-250-9zm440-152c250-41 487-161 679-345 346-330 485-826 361-1287-122-452-482-810-934-928-331-86-692-38-985 132-340 197-574 532-640 913-20 121-21 331-1 447 72 411 335 763 712 953 246 123 518 162 808 115zm4015 11c77-7 234-45 311-75 405-160 693-488 806-920 35-132 43-372 18-521-89-535-490-953-1026-1070-124-27-366-32-489-10-792 142-1273 944-1023 1706 161 492 614 851 1128 894 98 8 143 8 275-4zM1725 2746c548-123 947-547 1030-1096 52-340-40-7e2-250-979-193-256-466-429-788-498-62-14-126-18-267-18-167 1-196 3-293 28-256 64-466 184-643 369-1e2 104-162 191-225 315-95 187-139 374-139 593 0 361 125 663 380 921 2e2 203 433 324 720 375 98 17 379 11 475-10zm4085-1c262-58 465-169 655-360 258-258 385-563 385-924 0-215-43-404-132-581-179-355-486-6e2-871-696-139-35-368-43-512-20-566 93-1004 537-1090 1106-71 467 126 948 504 1233 165 125 376 217 572 251 110 20 383 14 489-9z"/><path d="M1275 6251c4-55 4-139 0-187l-7-87-284 5-284 5v-79-78l278-2 278-3-13-80c-30-182-99-374-185-513-65-105-224-269-322-332l-69-44 39-34c21-19 53-45 71-59l32-25 63 48c150 115 295 288 376 450 63 126 136 378 157 542l7 52h280 280l-6-87c-3-49-8-137-11-198-13-242-48-461-89-550-34-75-60-82-254-67-80 6-148 10-150 7-2-2 0-37 4-77l9-73 40-7c74-13 353-9 388 6 36 15 93 75 109 115 52 135 91 449 113 903l7 137-44 22c-42 22-49 22-351 20l-309-3 6 124c4 67 9 151 12 186l6 62h-92-92l7-99z"/><path d="M5524 6263c4-16 9-122 13-237l6-208-387 3-386 4v-80-80l386 3 386 3-7-78c-30-357-161-581-435-743l-92-55 32-26c17-15 51-41 75-58l43-31 79 52c103 69 247 214 305 308 93 149 143 319 155 518l6 113 349-3 348-3v80 80l-352-4-351-3 6 236 6 236h-96-95l6-27z"/><path d="M940 2240c-45-20-64-34-62-45 5-26 129-301 205-454l72-144-25-16c-123-79-253-236-291-348-49-147-21-3e2 72-393 129-129 352-174 746-152 114 7 253 19 308 27s103 15 108 15c11 0 9 170-3 170-5 0-65-9-132-20-357-57-659-52-801 13-117 53-164 126-155 241 7 88 52 169 139 250 116 110 226 178 614 378 149 77 274 143 278 148 10 8-62 139-76 140-5 0-23-11-40-24-18-14-140-83-272-154-132-70-261-141-287-156l-47-27-25 43c-40 69-139 283-191 416-27 67-54 122-59 121-6-1-40-14-76-29z"/><path d="M5077 2294c-4-4-7-24-7-44 0-21-9-103-20-184-49-360-62-619-40-805 5-46 11-84 12-85 2-1 36 0 76 2l73 4-7 82c-19 231 78 490 243 652 154 152 330 171 443 48 90-97 124-221 125-449 0-178-15-250-78-370-39-73-142-178-221-224-83-49-225-1e2-346-124-58-12-106-22-108-23s17-33 42-72l46-70 82 18c393 86 634 286 721 599 18 65 21 103 21 266 0 209-13 284-73 410-184 392-627 335-868-110-22-41-33-53-33-38 0 58 72 481 87 506 2 4-27 7-66 7-38 0-76 2-83 5-8 3-17 2-21-1z"/></g></svg>