<svg version="1.0" xmlns="http://www.w3.org/2000/svg" width="960pt" height="960pt" viewBox="0 0 960 960"><g transform="translate(0.000000,960.000000) scale(0.100000,-0.100000)" fill="#000" stroke="none"><path d="M1790 9589c-359-37-733-188-1020-412-96-75-253-230-330-327-97-122-163-227-236-375-370-753-227-1656 360-2264 422-437 1026-660 1627-601 451 45 864 234 1188 545 357 342 567 780 612 1278l12 127h797 797l12-132c23-256 85-478 195-703 69-141 153-275 232-370 28-33 53-65 57-72 5-7-517-526-1393-1387L3299 3520l-57 47c-95 77-243 170-373 233-694 335-1515 242-2119-240-228-182-413-414-546-685-271-551-271-1198 0-1750C477 569 981 174 1580 46c651-139 1321 50 1799 509 357 342 567 780 612 1278l12 127h797 797l12-133c23-255 85-477 195-702 2e2-408 513-721 921-921 549-269 1191-271 1743-4 753 364 1204 1164 1122 1991-40 4e2-199 782-452 1084-191 229-407 398-670 525-693 335-1514 242-2118-240-97-77-252-234-327-330-188-241-330-554-384-846-12-65-23-125-25-131-5-19-1623-19-1628 0-2 6-13 66-25 131-55 298-212 638-397 861-28 33-53 65-57 72-5 7 519 529 1393 1387l1401 1376 67-54c103-82 214-152 357-222 549-269 1191-271 1743-4 753 364 1204 1164 1122 1991-40 4e2-199 782-452 1084-191 229-407 398-670 525-693 335-1514 242-2118-240-97-77-252-234-327-330-188-241-330-554-384-846-12-65-23-125-25-131-3-10-174-13-814-13-640 0-811 3-814 13-2 6-13 66-25 131-73 396-281 774-587 1066-419 401-1e3 598-1584 539zm398-2e2c476-51 909-286 1205-652 99-123 157-213 227-360 308-639 213-1387-245-1937-377-452-977-694-1563-629-469 51-891 276-1190 634-209 249-337 528-399 865-24 132-24 448 0 580 119 649 527 1151 1131 1390 134 53 297 90 491 113 68 8 252 6 343-4zm56e2.0c476-51 909-286 1205-652 99-123 157-213 227-360 241-5e2 240-1060-4-1562-394-813-1318-1204-2181-924-107 35-291 122-394 186-371 231-660 621-775 1044-49 180-60 270-60 479 0 209 11 298 60 480 129 480 470 896 919 1123 211 107 390 158 660 190 68 8 252 6 343-4zM2188 3789c476-51 909-286 1205-652 99-123 157-213 227-360 308-639 213-1387-245-1937-377-452-977-694-1563-629-469 51-891 276-1190 634-209 249-337 528-399 865-24 132-24 448 0 580 119 649 527 1151 1131 1390 134 53 297 90 491 113 68 8 252 6 343-4zm56e2.0c476-51 909-286 1205-652 99-123 157-213 227-360 241-5e2 240-1060-4-1562C8822 402 7898 11 7035 291c-107 35-291 122-394 186-371 231-660 621-775 1044-49 180-60 270-60 479 0 209 11 298 60 480 129 480 470 896 919 1123 211 107 390 158 660 190 68 8 252 6 343-4z"/><path d="M1786 8638c11-84 7-419-5-431-11-11-722-3-758 8-23 7-23 7-23-106v-114l381 4 382 3-7-63c-27-269-161-628-312-841-108-152-330-355-462-422l-33-17 101-81 101-80 95 72c341 260 549 589 664 1050 24 96 70 341 70 371 0 5 170 9 381 9h382l-7-172c-21-507-70-858-141-997-39-78-64-85-270-77-93 4-195 11-225 15-30 5-56 8-58 6-4-3 21-204 27-214 4-5 104-15 224-21 312-17 396 2 468 107 95 137 156 520 189 1183 5 113 12 228 16 257l5 52-63 32-63 33-423-3-424-3 6 64c3 34 8 124 11 198 3 74 8 159 11 188l6 52h-127-127l8-62z"/><path d="M7535 8673c3-16 9-158 12-316l5-289-526 4-526 3v-110-110l525 3 525 4v-61c0-33-7-111-15-174-55-417-257-715-623-918-51-28-91-52-90-54 2-1 49-36 105-78l102-77 103 69c418 282 609 632 644 1184l7 109 479-4 479-3-3 108-3 109-479-1-479-2 5 316 4 315h-129-129l7-27z"/><path d="M1289 3068l-97-41 20-46c84-198 207-464 280-610 48-96 88-176 88-177 0-1-37-31-82-67-195-153-319-319-362-484-18-69-21-215-5-282 39-170 176-299 389-366 151-47 260-59 525-58 275 1 624 27 778 59l27 6v120c0 120 0 120-22 114-124-35-473-75-723-83-414-13-645 59-731 229-75 148-20 332 151 503 143 144 322 255 820 512 363 187 425 221 425 232 0 5-25 50-55 99l-56 90-77-53c-43-29-161-97-262-150-241-127-403-216-476-260-33-19-64-35-71-35-23 0-241 464-337 718-15 39-33 72-39 72-7-1-55-19-108-42z"/><path d="M6955 3084c-3-38-19-172-35-299-48-374-62-539-62-745 0-165 16-416 27-429 2-2 48 0 102 4l98 7v186c1 160 4 199 22 269 73 275 235 521 426 648 122 81 265 1e2 377 49 65-29 139-1e2 182-174 68-116 108-311 108-526 0-450-189-737-590-898-95-38-289-91-376-102-28-3-57-10-64-14-17-10 104-190 128-190 10 0 73 13 140 30 572 140 890 444 967 925 19 116 21 365 5 475-38 250-122 434-255 559-273 255-672 156-952-236-26-37-67-104-91-148-35-66-42-74-38-45 3 19 10 76 16 125 16 134 58 377 84 488l23 97h-81c-45 0-97 3-118 6l-36 6-7-68z"/></g></svg>