<?xml version="1.0" standalone="no"?>
<!DOCTYPE svg PUBLIC "-//W3C//DTD SVG 20010904//EN"
 "http://www.w3.org/TR/2001/REC-SVG-20010904/DTD/svg10.dtd">
<svg version="1.0" xmlns="http://www.w3.org/2000/svg"
 width="700.000000pt" height="700.000000pt" viewBox="0 0 700.000000 700.000000"
 preserveAspectRatio="xMidYMid meet">
<metadata>
Created by potrace 1.14, written by Peter Selinger 2001-2017
</metadata>
<g transform="translate(0.000000,700.000000) scale(0.100000,-0.100000)"
fill="#000000" stroke="none">
<path d="M1245 6986 c-331 -55 -587 -186 -820 -420 -208 -209 -333 -441 -396
-736 -32 -149 -33 -429 -1 -573 100 -457 386 -826 793 -1024 332 -162 737
-191 1088 -76 88 28 244 100 316 145 182 115 357 290 472 473 114 180 213 482
213 649 0 22 3 51 6 64 l6 22 578 0 578 0 6 -31 c3 -17 6 -46 6 -64 0 -50 27
-191 55 -290 36 -128 150 -351 234 -460 l70 -90 -97 -96 c-113 -112 -1761
-1728 -1872 -1835 l-75 -73 -65 50 c-442 337 -1047 390 -1543 137 -397 -203
-673 -566 -769 -1011 -31 -147 -31 -427 0 -574 142 -659 677 -1123 1348 -1169
196 -13 457 31 644 110 390 165 694 496 824 896 35 109 66 264 66 334 0 23 3
51 6 64 l6 22 578 0 578 0 6 -31 c3 -17 6 -46 6 -63 0 -59 32 -220 62 -316
135 -422 461 -768 873 -923 181 -69 418 -105 599 -93 671 46 1207 511 1348
1169 31 148 31 428 0 574 -127 589 -561 1020 -1152 1144 -137 29 -388 32 -527
6 -400 -73 -744 -300 -968 -637 -106 -159 -190 -368 -217 -537 l-12 -83 -597
0 -596 0 -6 53 c-24 203 -137 464 -287 659 l-58 76 1019 1001 c560 551 1021
1001 1024 1001 3 0 33 -22 68 -48 219 -170 496 -273 775 -291 598 -37 1123
260 1402 792 107 203 155 413 155 667 -1 186 -16 280 -71 451 -70 219 -183
399 -358 575 -209 209 -458 341 -753 401 -131 27 -433 24 -563 -5 -388 -85
-710 -304 -926 -628 -99 -148 -179 -344 -210 -513 -9 -47 -18 -92 -20 -98 -3
-10 -131 -13 -597 -13 l-593 0 -12 80 c-15 109 -82 304 -142 418 -171 324
-473 586 -810 702 -150 51 -267 71 -445 75 -113 3 -197 0 -250 -9z m440 -152
c250 -41 487 -161 679 -345 346 -330 485 -826 361 -1287 -122 -452 -482 -810
-934 -928 -331 -86 -692 -38 -985 132 -340 197 -574 532 -640 913 -20 121 -21
331 -1 447 72 411 335 763 712 953 246 123 518 162 808 115z m4015 11 c77 -7
234 -45 311 -75 405 -160 693 -488 806 -920 35 -132 43 -372 18 -521 -89 -535
-490 -953 -1026 -1070 -124 -27 -366 -32 -489 -10 -792 142 -1273 944 -1023
1706 161 492 614 851 1128 894 98 8 143 8 275 -4z m-3975 -4099 c548 -123 947
-547 1030 -1096 52 -340 -40 -700 -250 -979 -193 -256 -466 -429 -788 -498
-62 -14 -126 -18 -267 -18 -167 1 -196 3 -293 28 -256 64 -466 184 -643 369
-100 104 -162 191 -225 315 -95 187 -139 374 -139 593 0 361 125 663 380 921
200 203 433 324 720 375 98 17 379 11 475 -10z m4085 -1 c262 -58 465 -169
655 -360 258 -258 385 -563 385 -924 0 -215 -43 -404 -132 -581 -179 -355
-486 -600 -871 -696 -139 -35 -368 -43 -512 -20 -566 93 -1004 537 -1090 1106
-71 467 126 948 504 1233 165 125 376 217 572 251 110 20 383 14 489 -9z"/>
<path d="M1275 6251 c4 -55 4 -139 0 -187 l-7 -87 -284 5 -284 5 0 -79 0 -78
278 -2 278 -3 -13 -80 c-30 -182 -99 -374 -185 -513 -65 -105 -224 -269 -322
-332 l-69 -44 39 -34 c21 -19 53 -45 71 -59 l32 -25 63 48 c150 115 295 288
376 450 63 126 136 378 157 542 l7 52 280 0 280 0 -6 -87 c-3 -49 -8 -137 -11
-198 -13 -242 -48 -461 -89 -550 -34 -75 -60 -82 -254 -67 -80 6 -148 10 -150
7 -2 -2 0 -37 4 -77 l9 -73 40 -7 c74 -13 353 -9 388 6 36 15 93 75 109 115
52 135 91 449 113 903 l7 137 -44 22 c-42 22 -49 22 -351 20 l-309 -3 6 124
c4 67 9 151 12 186 l6 62 -92 0 -92 0 7 -99z"/>
<path d="M5524 6263 c4 -16 9 -122 13 -237 l6 -208 -387 3 -386 4 0 -80 0 -80
386 3 386 3 -7 -78 c-30 -357 -161 -581 -435 -743 l-92 -55 32 -26 c17 -15 51
-41 75 -58 l43 -31 79 52 c103 69 247 214 305 308 93 149 143 319 155 518 l6
113 349 -3 348 -3 0 80 0 80 -352 -4 -351 -3 6 236 6 236 -96 0 -95 0 6 -27z"/>
<path d="M940 2240 c-45 -20 -64 -34 -62 -45 5 -26 129 -301 205 -454 l72
-144 -25 -16 c-123 -79 -253 -236 -291 -348 -49 -147 -21 -300 72 -393 129
-129 352 -174 746 -152 114 7 253 19 308 27 55 8 103 15 108 15 11 0 9 170 -3
170 -5 0 -65 -9 -132 -20 -357 -57 -659 -52 -801 13 -117 53 -164 126 -155
241 7 88 52 169 139 250 116 110 226 178 614 378 149 77 274 143 278 148 10 8
-62 139 -76 140 -5 0 -23 -11 -40 -24 -18 -14 -140 -83 -272 -154 -132 -70
-261 -141 -287 -156 l-47 -27 -25 43 c-40 69 -139 283 -191 416 -27 67 -54
122 -59 121 -6 -1 -40 -14 -76 -29z"/>
<path d="M5077 2294 c-4 -4 -7 -24 -7 -44 0 -21 -9 -103 -20 -184 -49 -360
-62 -619 -40 -805 5 -46 11 -84 12 -85 2 -1 36 0 76 2 l73 4 -7 82 c-19 231
78 490 243 652 154 152 330 171 443 48 90 -97 124 -221 125 -449 0 -178 -15
-250 -78 -370 -39 -73 -142 -178 -221 -224 -83 -49 -225 -100 -346 -124 -58
-12 -106 -22 -108 -23 -2 -1 17 -33 42 -72 l46 -70 82 18 c393 86 634 286 721
599 18 65 21 103 21 266 0 209 -13 284 -73 410 -184 392 -627 335 -868 -110
-22 -41 -33 -53 -33 -38 0 58 72 481 87 506 2 4 -27 7 -66 7 -38 0 -76 2 -83
5 -8 3 -17 2 -21 -1z"/>
</g>
</svg>
